<svg width="68" height="59" viewBox="0 0 68 59" fill="none" xmlns="http://www.w3.org/2000/svg">
<path d="M34 17.2778V41.7222ZM19.7778 29.5H48.2222ZM19.0667 57H48.9333C54.9074 57 57.894 57 60.176 56.0008C62.1831 55.1221 63.8148 53.7199 64.8373 51.995C66 50.0339 66 47.4673 66 42.3333V16.6667C66 11.5328 66 8.96593 64.8373 7.00509C63.8148 5.28026 62.1831 3.87794 60.176 2.99911C57.894 2 54.9074 2 48.9333 2H19.0667C13.0928 2 10.1058 2 7.82411 2.99911C5.81703 3.87794 4.18524 5.28026 3.1626 7.00509C2 8.96593 2 11.5328 2 16.6667V42.3333C2 47.4673 2 50.0339 3.1626 51.995C4.18524 53.7199 5.81703 55.1221 7.82411 56.0008C10.1058 57 13.0928 57 19.0667 57Z" fill="black"/>
<path d="M34 17.2778V41.7222M19.7778 29.5H48.2222M19.0667 57H48.9333C54.9074 57 57.894 57 60.176 56.0008C62.1831 55.1221 63.8148 53.7199 64.8373 51.995C66 50.0339 66 47.4673 66 42.3333V16.6667C66 11.5328 66 8.96593 64.8373 7.00509C63.8148 5.28026 62.1831 3.87794 60.176 2.99911C57.894 2 54.9074 2 48.9333 2H19.0667C13.0928 2 10.1058 2 7.82411 2.99911C5.81703 3.87794 4.18524 5.28026 3.1626 7.00509C2 8.96593 2 11.5328 2 16.6667V42.3333C2 47.4673 2 50.0339 3.1626 51.995C4.18524 53.7199 5.81703 55.1221 7.82411 56.0008C10.1058 57 13.0928 57 19.0667 57Z" stroke="white" stroke-width="4" stroke-linecap="round" stroke-linejoin="round"/>
</svg>
