<svg width="50" height="50" viewBox="0 0 50 50" fill="none" xmlns="http://www.w3.org/2000/svg">
<path d="M19.2308 36.0577C19.2308 35.2885 18.5577 34.6154 17.7885 34.6154H3.3654C2.59617 34.6154 1.9231 35.2885 1.9231 36.0577V46.6346C1.9231 47.4038 2.59617 48.0769 3.3654 48.0769H17.7885C18.5577 48.0769 19.2308 47.4038 19.2308 46.6346V36.0577Z" fill="white"/>
<path d="M7.78846 21.1538H3.07692C2.11539 21.1538 1.63462 22.0192 2.21154 22.5L9.90385 30.4808C10.2885 30.7692 10.8654 30.7692 11.25 30.4808L18.9423 22.5C19.5192 21.9231 19.0385 21.1538 18.0769 21.1538H13.5577C13.5577 16.3462 18.2692 11.5385 23.0769 11.5385V5.76923C14.4231 5.76923 7.78846 12.5 7.78846 21.1538Z" fill="white"/>
<path d="M40.1923 19.5192C39.8077 19.2308 39.2308 19.2308 38.8462 19.5192L31.1539 27.5C30.5769 28.0769 31.0577 28.8462 32.0192 28.8462H36.6346C36.6346 34.6154 32.6923 38.4615 26.9231 38.4615V44.2308C35.5769 44.2308 42.4039 37.5 42.4039 28.8462H47.1154C48.0769 28.8462 48.5577 27.9808 47.9808 27.5L40.1923 19.5192Z" fill="white"/>
<path d="M48.077 3.36539C48.077 2.59616 47.4039 1.92308 46.6347 1.92308H32.2116C31.4424 1.92308 30.7693 2.59616 30.7693 3.36539V13.9423C30.7693 14.7115 31.4424 15.3846 32.2116 15.3846H46.6347C47.4039 15.3846 48.077 14.7115 48.077 13.9423V3.36539Z" fill="white"/>
</svg>
