<svg width="50" height="50" viewBox="0 0 50 50" fill="none" xmlns="http://www.w3.org/2000/svg">
<path d="M26.9765 24.6272C26.3544 24.835 25.6908 24.9503 25 24.9503C24.3092 24.9503 23.6455 24.835 23.0235 24.6272C18.5047 25.3693 16.1398 28.6905 16.1398 32.7207H25H33.8602C33.8602 28.6905 31.4956 25.3693 26.9765 24.6272Z" fill="white"/>
<path d="M25 23.5144C27.6788 23.5144 29.8495 21.3426 29.8495 18.6643V17.2886C29.8495 14.6102 27.6788 12.4391 25 12.4391C22.3213 12.4391 20.1506 14.6102 20.1506 17.2886V18.6643C20.1506 21.3426 22.3213 23.5144 25 23.5144Z" fill="white"/>
<path d="M36.9531 0H13.0451C8.42129 0 4.6582 3.76387 4.6582 8.38857V41.6132C4.6582 46.2379 8.42129 50 13.0451 50H33.1325H34.4191L35.3291 49.0917L44.4335 39.9873L45.3418 39.0781V37.7916V8.38857C45.3418 3.76387 41.5787 0 36.9531 0ZM42.236 37.7915H37.5342C35.1043 37.7915 33.1324 39.7625 33.1324 42.1932V46.8942H13.0451C10.1285 46.8942 7.76406 44.5289 7.76406 41.6132V8.38857C7.76406 5.47119 10.1285 3.10576 13.0451 3.10576H36.9531C39.8707 3.10576 42.2359 5.47119 42.2359 8.38857V37.7915H42.236Z" fill="white"/>
</svg>
