<svg width="71" height="71" viewBox="0 0 71 71" fill="none" xmlns="http://www.w3.org/2000/svg">
<path d="M14.0565 59.3649C16.0082 54.7667 20.565 51.5417 25.875 51.5417H45.125C50.4351 51.5417 54.9919 54.7667 56.9436 59.3649M48.3334 27.4792C48.3334 34.5667 42.5875 40.3125 35.5 40.3125C28.4124 40.3125 22.6667 34.5667 22.6667 27.4792C22.6667 20.3915 28.4124 14.6458 35.5 14.6458C42.5875 14.6458 48.3334 20.3915 48.3334 27.4792ZM67.5834 35.5C67.5834 53.219 53.219 67.5833 35.5 67.5833C17.7809 67.5833 3.41669 53.219 3.41669 35.5C3.41669 17.7808 17.7809 3.41666 35.5 3.41666C53.219 3.41666 67.5834 17.7808 67.5834 35.5Z" stroke="#95CE26" stroke-width="5" stroke-linecap="round" stroke-linejoin="round"/>
</svg>
